<?xml version="1.0" encoding="utf-8"?>
<!-- Generator: Adobe Illustrator 22.1.0, SVG Export Plug-In . SVG Version: 6.00 Build 0)  -->
<svg version="1.1" id="Layer_1" xmlns="http://www.w3.org/2000/svg" xmlns:xlink="http://www.w3.org/1999/xlink" x="0px" y="0px"
	 viewBox="0 0 237.6 133.4" style="enable-background:new 0 0 237.6 133.4;" xml:space="preserve">
<style type="text/css">
	.st0{fill:#2F2E34;}
	.st1{fill:#EC5551;}
	.st2{fill:#DBB44E;}
	.st3{fill:#5BC8F2;}
</style>
<rect x="0.3" y="0.1" class="st0" width="237.2" height="133.8"/>
<rect x="24.7" y="47.4" class="st1" width="61.5" height="28.8"/>
<g>
	<g>
		<rect x="47.5" class="st2" width="27.6" height="55.5"/>
		<rect x="45.6" y="72.8" class="st3" width="38.2" height="60.7"/>
		<path class="st0" d="M54.4,133.5c-18,0-36.4-0.3-54.4-0.3C0,88.7,0,44.3,0-0.2c18.4,0,37.2,0.3,55.6,0.3c0,0.3,0.1,0.6,0.1,0.9
			c0,8.4-0.1,16.8-0.1,25.2c0,1.4-0.1,2.7-1.3,3.5c-1.3,1.4-1.9,3.1-1.9,4.9c0,1.9-0.2,3.7-1.1,5.4c-0.6,1.1-1.1,2.4-1.6,3.5
			c-0.2,0.7-0.5,1.3-0.7,2c-0.1,0.3,0.2,0.8,0.5,0.9c0.3,0.1,0.7,0,1-0.1c0.3-0.2,0.6-0.6,0.8-0.9c0.4-0.8,0.8-1.6,1.2-2.3
			c0.5-0.9,1.2-1.8,1.8-2.6c0.1-0.1,0.4-0.2,0.6-0.2c0.1,0.2,0.2,0.4,0.1,0.6c0,0.6-0.1,1.2-0.2,1.8c-0.4,1.7-0.8,3.3-1.1,5
			c-0.2,1.1-0.4,2.2-0.5,3.3c-0.1,0.7,0.3,1.1,1.1,1.3c0.6,0.1,1-0.2,1.3-0.9c0.1-0.2,0.1-0.4,0.2-0.6c0.7-2.8,1.3-5.5,2-8.3
			c0-0.2,0.3-0.3,0.4-0.5c0.1,0.2,0.3,0.4,0.3,0.5c0,0.8,0,1.5,0,2.3c-0.1,2.5-0.3,5-0.4,7.5c0,0.4,0.1,0.8,0.2,1.1
			c0.3,0.8,1.3,1,1.9,0.4c0.3-0.3,0.5-0.8,0.5-1.2c0.2-1.3,0.4-2.6,0.5-3.9c0.2-1.9,0.3-3.9,0.5-5.8c0-0.2,0.2-0.3,0.3-0.5
			c0.1,0.1,0.2,0.3,0.3,0.4c0.1,0.1,0.1,0.2,0.1,0.4c0.2,2.5,0.3,5.1,0.5,7.6c0,0.3,0.1,0.7,0.3,1c0.3,0.5,0.8,0.7,1.4,0.6
			c0.7-0.2,1.1-0.6,1.2-1.3c0.1-1.2,0.2-2.3,0.2-3.5c0-2.4-0.2-4.9-0.3-7.3c0-0.9,0.2-1.7,0.3-2.6c0-0.2,0.3-0.5,0.4-0.7
			c0.1,0,0.1,0,0.2,0c0.2,0.4,0.4,0.8,0.5,1.3c0.3,0.8,0.6,1.7,0.9,2.5c0.5,1.1,1.3,1.9,2.5,2.2c1,0.2,1.6-0.5,1.4-1.4
			c-0.1-0.4-0.3-0.8-0.5-1.2c-1.2-2.1-2.1-4.2-2.6-6.6c-0.4-2.1-1.3-3.8-3.3-4.9c-0.5-0.3-0.7-0.7-0.7-1.3c0.3-7,0.6-14.1,1-21.1
			c0.1-2,1-4.7,1.1-6.7c57.1,0,114.2,0,171.3,0c0,44.5-0.7,89.6-0.7,134.1c-56.9,0-113.7,0-170.6,0c0-0.1-0.1-0.2-0.1-0.4
			c-0.2-2.9-0.4-5.7-0.5-8.6c-0.3-6.1-0.5-12.2-0.7-18.3c0-0.7,0.2-1.1,0.8-1.5c0.6-0.5,1.3-0.9,1.9-1.5c1.3-1.2,1.8-2.8,2.2-4.4
			c0.6-2.8,1.5-5.4,3-7.8c0.4-0.6,0.7-1.4,0.9-2.1c0.3-1.1-0.5-1.9-1.6-1.7c-0.5,0.1-1,0.3-1.4,0.6c-1,0.7-1.7,1.6-2.1,2.7
			s-0.8,2.3-1.2,3.4c-0.1,0.2-0.3,0.4-0.5,0.6c-0.2-0.2-0.5-0.4-0.5-0.6c-0.2-0.7-0.4-1.4-0.4-2.2c0.1-3.2,0.2-6.4,0.3-9.6
			c0-1.6-0.1-3.2-0.2-4.8c-0.1-1.1-1-1.8-2-1.7c-0.9,0.1-1.5,0.9-1.5,1.9c0,1.2,0,2.4-0.1,3.6c-0.2,2.1-0.4,4.2-0.6,6.3
			c0,0.2-0.3,0.3-0.4,0.5c-0.1-0.2-0.3-0.3-0.4-0.5c-0.1-1.3-0.2-2.6-0.3-3.9c-0.3-2.7-0.5-5.4-0.9-8c-0.1-0.5-0.3-1-0.5-1.4
			c-0.3-0.5-0.8-0.7-1.4-0.6c-0.6,0.1-1,0.4-1.1,1c-0.1,0.5-0.2,1.1-0.2,1.6c0.1,2.4,0.3,4.7,0.4,7.1c0.1,1.6,0.1,3.2,0.1,4.9
			c0,0.2-0.2,0.3-0.3,0.5c-0.1-0.1-0.3-0.3-0.4-0.4c-0.1-0.2-0.1-0.4-0.1-0.5c-0.9-3.5-1.7-7-2.6-10.5c-0.3-1.1-1.1-1.4-2.1-1
			c-0.6,0.3-0.9,0.7-0.8,1.6c0.4,2.2,0.9,4.3,1.3,6.5c0.4,1.9,0.7,3.9,1.1,5.8c0,0.2-0.1,0.4-0.2,0.6c-0.2-0.1-0.5-0.1-0.7-0.2
			c-0.4-0.4-0.8-0.9-1.1-1.4c-0.9-1.6-1.7-3.2-2.6-4.7c-0.2-0.4-0.5-0.8-0.8-1.1c-0.4-0.4-0.9-0.6-1.5-0.4c-0.6,0.3-0.6,0.8-0.6,1.4
			c0.1,0.4,0.2,0.8,0.3,1.1c0.5,1.1,1,2.1,1.5,3.2c1.1,2.4,2.4,4.8,2.3,7.7c0,0.4,0,0.8,0.1,1.2c0.1,2.7,1.1,5,3.2,6.8
			c0.5,0.5,0.8,1,0.8,1.8c0,2.8,0.2,5.6,0.2,8.3c0,6.2,0,12.5,0,18.7C54.5,133.1,54.5,133.3,54.4,133.5z M36.4,54.2
			c-0.1-0.1-0.3-0.2-0.4-0.3c-1.5-0.9-3.1-1-4.6-0.1c-1.5,0.9-2.1,2.6-1.8,4.3c0.3,1.6,1.4,2.6,2.7,3.4c2.5,1.6,5.4,2.4,8.3,3
			c0.9,0.2,0.9,0.2,1.3-0.7c0.7-1.5,1.5-3,2.1-4.6c0.7-1.7,1.1-3.5,1-5.4c-0.1-1.8-1.5-3.5-3.1-3.9c-2-0.5-3.9,0.3-4.8,2.1
			C36.8,52.8,36.6,53.5,36.4,54.2z M70.4,62.3c0-0.1,0-0.3-0.1-0.5c-0.2-1.9-2.1-3.1-3.9-2.4c-1.5,0.6-2.2,2-2,3.9
			c0.2,2.1,0.8,4,1.5,5.9c0.1,0.3,0.3,0.4,0.7,0.4c0.6-0.1,1.2-0.1,1.8-0.2c1.9-0.3,3.8-0.8,5.4-2c0.9-0.7,1.4-1.7,1.2-2.9
			c-0.2-1.3-1.1-2.2-2.3-2.3C71.9,62.1,71.2,62.2,70.4,62.3z"/>
		<path class="st1" d="M70.4,62.3c0.8-0.1,1.6-0.2,2.3-0.2c1.2,0.1,2.1,1.1,2.3,2.3c0.2,1.2-0.2,2.2-1.2,2.9c-1.6,1.2-3.5,1.7-5.4,2
			c-0.6,0.1-1.2,0.2-1.8,0.2c-0.3,0-0.5-0.1-0.7-0.4c-0.8-1.9-1.3-3.8-1.5-5.9c-0.2-1.9,0.6-3.3,2-3.9c1.8-0.7,3.7,0.5,3.9,2.4
			C70.3,62,70.3,62.2,70.4,62.3z"/>
	</g>
</g>
</svg>
