<?xml version="1.0" encoding="utf-8"?>
<!-- Generator: Adobe Illustrator 22.1.0, SVG Export Plug-In . SVG Version: 6.00 Build 0)  -->
<svg version="1.1" id="Layer_1" xmlns="http://www.w3.org/2000/svg" xmlns:xlink="http://www.w3.org/1999/xlink" x="0px" y="0px"
	 viewBox="0 0 52 47.9" style="enable-background:new 0 0 52 47.9;" xml:space="preserve">
<style type="text/css">
	.st0{fill:#ED5550;}
</style>
<path class="st0" d="M22.6,13.8c0.6-2.2,0.9-4.3,1.9-6.2c2.8-5.6,8.7-8,14.8-6.5c4.9,1.2,9.3,6.5,9.6,12.1
	c0.3,5.9-0.9,11.4-3.1,16.7c-1.9,4.9-4,9.6-6.5,14.2c-1.2,2.8-1.2,2.8-4,2.2c-9-1.9-17.6-4.3-25.6-9.3c-4-2.5-7.4-5.6-8.3-10.5
	c-0.9-5.3,1.2-10.5,5.6-13.3C11.4,10.4,22.3,13.5,22.6,13.8z"/>
</svg>
